<?xml version="1.0" encoding="utf-8"?>
<!-- Generator: Adobe Illustrator 18.1.1, SVG Export Plug-In . SVG Version: 6.00 Build 0)  -->
<svg version="1.1" id="Calque_1" xmlns="http://www.w3.org/2000/svg" xmlns:xlink="http://www.w3.org/1999/xlink" x="0px" y="0px"
	 viewBox="-49 141 512 512" enable-background="new -49 141 512 512" xml:space="preserve">
<path id="warning-3-icon" fill="#FFFFFF" d="M207,191C93.2,191,1,283.2,1,397c0,113.8,92.2,206,206,206c113.8,0,206-92.2,206-206
	C413,283.2,320.8,191,207,191z M207.5,539.5c-16.2,0-29.3-13.1-29.3-29.3c0-16.2,13.1-29.3,29.3-29.3c16.2,0,29.3,13.1,29.3,29.3
	C236.8,526.4,223.7,539.5,207.5,539.5z M246.2,299.2c-2.5,19.8-20.7,116.1-26.7,147.7c-1.1,5.9-6.2,10.1-12.2,10.1h-0.2
	c-6.2,0-11.4-4.4-12.6-10.4c-6.1-32.1-24.3-128.5-26.7-148c-2.9-23.4,15.4-44.2,39-44.2C230.7,254.5,249.2,275.5,246.2,299.2z"/>
</svg>
