<?xml version="1.0" encoding="utf-8"?>
<!-- Generator: Adobe Illustrator 18.1.0, SVG Export Plug-In . SVG Version: 6.00 Build 0)  -->
<svg version="1.1" id="Calque_1" xmlns="http://www.w3.org/2000/svg" xmlns:xlink="http://www.w3.org/1999/xlink" x="0px" y="0px"
	 viewBox="-49 141 512 512" enable-background="new -49 141 512 512" xml:space="preserve">
<path id="refresh-3-icon" fill="#FFFFFF" d="M324.2,283.6L287,320.8c-20.2-20.2-48.2-32.7-79-32.7c-61.7,0-111.8,50.1-111.8,111.8
	c0,0,0,0,0,0h43.4l-69.3,69.3L1,399.9h42.5c0,0,0,0,0,0c0-90.8,73.6-164.5,164.4-164.5C253.4,235.4,294.5,253.8,324.2,283.6z
	 M413,394.1l-69.3-69.3l-69.3,69.3h43.4c0,0,0,0,0,0c0,61.7-50,111.8-111.8,111.8c-30.9,0-58.8-12.5-79-32.7l-37.3,37.3
	c29.8,29.8,70.9,48.2,116.3,48.2c90.8,0,164.4-73.6,164.4-164.5c0,0,0,0,0,0L413,394.1L413,394.1z"/>
</svg>
