<?xml version="1.0" encoding="utf-8"?>
<!-- Generator: Adobe Illustrator 18.1.0, SVG Export Plug-In . SVG Version: 6.00 Build 0)  -->
<svg version="1.1" id="Mode_Isolation" xmlns="http://www.w3.org/2000/svg" xmlns:xlink="http://www.w3.org/1999/xlink" x="0px"
	 y="0px" viewBox="0 0 612 231" enable-background="new 0 0 612 231" xml:space="preserve">
<g>
	<path fill="#FFFFFF" d="M600.7,177.4c-2.4,3.6-6.1,5.7-10,7.3c-4.9,2.1-10,3.8-15.2,4.9c-2.8,0.6-5.5,1.5-8.3,1.9
		c-2,0.3-3.9,0.8-5.9,1c-8.8,0.9-17.5,1.2-26.3,0.3c-3.1-0.3-6.2-0.6-9.3-1.2c-7-1.3-13.4-4.1-19-8.5c-5.4-4.1-9.7-9.2-12.9-15.1
		c-2.6-4.7-4.5-9.7-5.7-14.9c-0.9-4.2-1.7-8.5-1.7-12.8c0-5.8-0.4-11.6,0.3-17.3c0.6-5.2,1.1-10.4,2.6-15.4c0.4-1.2,0.6-2.5,0.8-3.7
		c0.4-2.1-0.8-3.2-3.3-3.5c-4.9-0.6-9.7,0.3-14.4,1.7c-8.9,2.8-17.4,6.5-25.9,10.2c-7.6,3.4-15,7.3-22.5,11
		c-7.1,3.5-14,7.5-20.7,11.7c-6.3,4-12.3,8.3-18.2,12.7c-5.2,3.9-10.3,7.8-15.3,11.8c-4.9,3.9-9.8,7.8-14.8,11.5
		c-3.6,2.7-7.3,5.2-11.1,7.6c-5.5,3.4-11.5,4.8-17.8,4.1c-6.1-0.6-11.2-4.3-12.9-11.3c-0.7-3.1-0.7-6.1-0.4-9.1
		c0.4-3.4,1.2-6.8,2.3-10.2c2.5-7.8,6.2-15,10.4-22c3.2-5.2,6.5-10.4,10.2-15.3c3.6-4.7,7-9.6,10.8-14.1c4.4-5.4,8.9-10.7,13.4-15.9
		c2.8-3.2,5.8-6.4,8-10.1c0.8-1.3,0.6-2.1-0.7-2.7c-1.2-0.5-2.4-1-3.8-1c-4.8,0.1-9.6-0.2-14.3,0.1c-3.1,0.2-6.3,0.7-9.4,1
		c-3.2,0.4-6.5,0.9-9.7,1.1c-3.2,0.2-6.3,0.9-9.4,1.1c-3.3,0.3-6.5,0.7-9.7,1.2c-2.9,0.5-5.8,0.6-8.6,1.3c-1.8,0.4-3.7,0.6-5.5,0.7
		c-4.4,0.2-8.6,1.6-13,1.9c-3.6,0.2-7.2,1.6-10.8,1.9c-3.8,0.4-7.5,1.4-11.2,1.8c-3.2,0.4-6.4,1.3-9.6,1.9c-3,0.6-5.9,1-8.9,1.6
		c-5.6,1.2-11.3,2.3-16.9,3.5c-3.8,0.8-7.6,1.8-11.4,2.6c-3.6,0.8-7.1,1.7-10.7,2.7c-3.9,1.1-7.7,2.1-11.6,3.2
		c-4.5,1.3-8.9,2.6-13.4,4c-2.9,0.9-5.9,1.7-8.7,2.9c-3.1,1.3-6.2,2.4-9.3,3.5c-6,2.1-11.9,4.5-17.6,7.2
		c-6.8,3.3-13.5,6.7-19.9,10.8c-4.6,2.9-9.1,5.8-13.4,9c-2.8,2.1-5.7,4.2-8.5,6.4c-6.6,5.3-12.7,11.2-18.4,17.5
		c-5.8,6.4-10.8,13.4-14.5,21.3c-2.7,5.8-4.5,11.8-4.2,18.3c0.3,5.7,2.9,8.3,8.1,9.3c3.7,0.7,7.3,0.5,10.9,0.6
		c3.7,0.1,7.3,0.4,10.8,1.5c1.4,0.4,2.8,0.9,3.6,2.6c0.7,1.6,0,2.6-1,3.4c-1.4,1.2-3.1,2-4.8,2.3c-4.4,0.7-8.6,2-13.1,2.5
		c-4.2,0.5-8.3,1.5-12.6,1.5c-0.5,0-1,0.1-1.2,0.6c-7.8,0-15.5,0-23.3,0c-0.3-0.7-0.9-0.6-1.5-0.6c-5.8-0.4-11.4-1.6-16.7-3.9
		c-5.4-2.3-9.3-5.9-10.5-11.9c-0.1-0.5-0.4-0.7-0.9-0.8c0-3.5,0-7,0-10.5c0.5-0.1,0.8-0.5,0.9-1c0.8-6.4,3.3-12.3,6.3-18
		c2.7-5.2,5.8-10.1,9.5-14.6c2.6-3.2,5-6.6,7.8-9.6c2.7-3,5.7-5.8,8.6-8.7c3.4-3.4,7-6.6,10.7-9.7c4.5-3.9,9.1-7.6,13.8-11.3
		c4.5-3.5,9-6.8,13.6-10.2c3.7-2.7,7.6-5.3,11.3-7.9c2-1.4,3.7-3.1,5.2-5.1c2.1-2.8,2.4-6.6-1.8-8.8c-3-1.6-6.1-2.5-9.5-3
		c-4-0.6-7.9-1.4-11.8-2c-1.8-0.3-3.7-0.6-5.5-0.7c-4-0.3-7.9-1.3-11.9-1.8c-4.3-0.5-8.6-1.6-12.8-2.5c-2.2-0.5-4.2-1.2-6.4-1.8
		c-1.8-0.5-3-1.6-3.4-3.4c-0.3-1.2,0.5-2.1,1.1-3c1.6-2.2,3.9-3.5,6.5-4.3c3.1-1,6.4-1.4,9.7-1.5c5.2-0.1,10.3-0.8,15.5-1.1
		c3.8-0.2,7.6-0.3,11.4-0.5c11.4-0.6,22.9-0.7,34.3-1c9.8-0.3,19.6-0.5,29.4-0.6c3.2,0,6.3-0.7,9.3-1.8c7.4-2.7,14.1-6.6,20.7-10.9
		c5.7-3.6,11.2-7.5,16.6-11.4c8.5-6.2,16.9-12.6,25.6-18.5c3.6-2.4,7.2-4.9,11.3-6.3c2.2-0.8,4.3-1.6,6.7-1.4
		c3.7,0.2,7.4-0.1,11.1,0.1c2.8,0.2,5.5,1,8.3,1.3c2.6,0.3,5,1.1,7.5,1.8c2.4,0.8,4.9,1.6,6.9,3.4c2.8,2.4,3.2,5.1,1.4,8.3
		c-1.5,2.5-3.6,4.5-5.6,6.5c-6.8,7-14,13.7-22.1,19.4c-3.2,2.2-6.4,4.5-10.2,5.7c-1.9,0.6-3.9,0.7-5.8,0.8c-5.7,0.3-11.3,0.9-17,1.2
		c-5.7,0.4-11.5,0.6-17.2,1.5c-0.6,0.1-1.2,0.3-1.7,0.9c0.7,0.7,1.5,1,2.4,1c2,0,4.1-0.1,6,0.1c9.2,0.9,18.5,0.3,27.8,1
		c5.6,0.5,11.2,0.6,16.8,0.3c9.7-0.4,19.4-0.5,29-1c4.3-0.2,8.7,0,13-0.6c4.5-0.6,9-0.4,13.4-1.2c0.3,0,0.5-0.1,0.8-0.1
		c3.8,0.3,7.6-0.7,11.4-0.8c3.3-0.1,6.6-0.7,9.9-1.2c2.3-0.4,4.6-0.5,6.9-0.8c5.7-0.6,11.3-1.6,17-2.2c4.4-0.5,8.7-1.2,13-1.8
		c3.8-0.5,7.6-0.9,11.4-2c1.5-0.4,3-0.3,4.6-0.5c2.5-0.3,4.8-0.9,7.3-1.3c2.7-0.4,5.4-0.4,8.1-1.1c2.4-0.6,4.8-0.6,7.2-0.9
		c7.1-0.8,14.2-1.2,21.2-0.7c3.4,0.2,6.9,0.9,10,2.8c1.8,1,2.7,3.8,1.9,5.6c-2.2,4.8-5.7,8.6-9.2,12.5c-5,5.6-10.3,10.8-15.6,16
		c-7.7,7.4-15.6,14.7-23.2,22.2c-2.7,2.7-5.5,5.2-8,8.1c-0.3,0.3-0.6,0.6-0.8,1c-0.3,0.5-0.8,0.9-0.3,1.6c0.5,0.6,1,0.3,1.6,0.1
		c4.6-1,9-2.6,13.3-4.7c8.6-4.1,17.2-8.1,25.7-12.5c8.1-4.3,16.5-8.1,24.6-12.6c7.8-4.3,15.9-8,23.7-12.3c5.2-2.9,10.8-5.1,16.2-7.6
		c4.9-2.2,9.9-4.4,14.8-6.4c5-2,10-4.1,15.1-5.8c3.2-1,6.2-2.5,9.4-3.3c3.1-0.8,6.1-2,9.2-2.8c3.5-0.9,7-1.5,10.6-1.9
		c4.2-0.5,8.6-1,12.6,1c3.5,1.8,4.2,3.8,2.9,7.6c-2,6.2-6.3,11.1-9.6,16.6c-4.4,7.2-8.3,14.7-11.1,22.7c-1.6,4.5-3,9.1-4.2,13.8
		c-0.8,3.1-1.3,6.3-1.9,9.4c-0.9,4.9-1.6,9.8-1.3,14.8c0.2,2.8,0.8,5.5,1.3,8.2c0.6,3.2,1.8,6.1,3.3,8.9c3.7,7.1,9.3,12.4,16.5,15.9
		c2.9,1.4,5.8,2.5,8.9,3.4c1.8,0.5,3.7,1,5.6,1c12.1,0,24.1,0,36.2-0.1c1.8,0,3.3,0.6,4.6,1.6C600.7,176.3,600.7,176.9,600.7,177.4z
		"/>
	<path opacity="0.6" fill="#FFFFFF" d="M308.1,91.1c2.2,0,4.5,0.1,6.7,0c2.1-0.2,3.9,0.6,5.8,1.2c1.8,0.6,2.4,2.3,1.7,4.3
		c-0.6,2.1-1.8,3.8-3.1,5.5c-3.5,4.7-7.1,9.2-10.5,13.9c-3.1,4.2-6.1,8.5-9.2,12.7c-2.7,3.7-5.4,7.3-8,11c-2.7,3.9-5.1,8-7.3,12.3
		c-2,3.8-4,7.7-5.6,11.7c-2.1,5.2-3.3,10.6-2.5,16.2c0.5,3.5,2.2,6.3,5,8.5c2.5,2,5.5,2.2,8.4,2.7c4.7,0.9,9.4-0.6,14.1-0.2
		c1,0.1,1.9,0.2,2.8,0.6c2,0.9,2.4,2.6,0.6,4.1c-1.7,1.4-3.8,2.1-5.9,2.7c-3.6,1-7.2,2.2-10.9,2.7c-2.7,0.4-5.3,0.9-7.9,1.3
		c-3.7,0.6-7.4,0-11,1.2c-0.1,0-0.2,0.1-0.3,0.1c-3.6,0.1-7.2,0.5-10.8,0.7c-4.1,0.2-8.1-0.5-12.2-1.3c-3.3-0.7-6.1-2.2-8.1-4.7
		c-1.4-1.7-2-3.8-1.6-6.1c1-6.1,3.7-11.4,7.1-16.5c4-5.8,8.4-11.3,12-17.3c0.6-1,1.1-2,1.1-3.1c0.1-1.3-0.5-1.8-1.7-1.2
		c-1.3,0.6-2.5,1.4-3.6,2.2c-7.1,4.6-14.5,8.8-21.9,12.9c-5.5,3-11,6.1-16.7,8.8c-6.3,3-12.6,6.1-19.1,8.5
		c-3.5,1.3-6.9,3.2-10.5,4.3c-3.7,1.2-7.3,2.7-11.1,3.8c-4.1,1.2-8,2.7-12.2,3.6c-4,0.9-7.9,2-12,2.6c-2.2,0.3-4.5,0.1-6.5,1.3
		c-0.2,0.1-0.4,0.1-0.6,0.1c-7.5,0.8-15,1-22.5,0.6c-4.1-0.2-8.4-0.8-12.2-2.3c-4.7-1.9-8.2-5.1-9.6-10.3c-1.1-4.2,0-7.9,1.7-11.6
		c2.4-5.3,6.1-9.6,10-13.8c3.5-3.9,7.5-7.1,11.4-10.4c3.9-3.3,8.2-6.4,12.5-9.2c3-2,6-4,9.1-5.9c6.5-4.1,13.3-7.7,20.1-11.3
		c6.6-3.4,13.3-6.5,20.2-9.3c6.1-2.5,12.2-4.8,18.5-6.8c6.1-2,12.3-3.7,18.4-5.5c2.2-0.7,4.4-0.9,6.6-1.7c3.7-1.2,7.5-2,11.3-2.9
		c3.8-0.8,7.6-2,11.4-2.6c2.6-0.4,5.2-1.1,7.8-1.6c3.9-0.8,7.9-1.5,11.8-2.2c3.8-0.7,7.6-1.5,11.5-2c2.6-0.3,5.3-0.6,7.8-1
		c3.5-0.6,7-0.4,10.5-1.2c3-0.6,6.2-0.1,9.4-0.1C308.1,91.2,308.1,91.1,308.1,91.1z M183,164.7c1.9,0,3.7-0.4,5.5-0.6
		c4.4-0.5,8.7-1.3,13-2.4c4.7-1.2,9.3-2.8,13.8-4.5c8-3,15.6-6.8,22.9-11.1c7.5-4.4,14.9-9.2,21.3-15.1c3.8-3.5,7.6-7.1,9.8-11.9
		c1.4-3.2,0.3-6.4-2.9-7.4c-1.4-0.5-2.9-0.9-4.5-0.9c-4,0-8,0.6-12,1.2c-4,0.7-8,1.5-11.9,2.6c-4.9,1.3-9.9,2.6-14.7,4.4
		c-4.3,1.6-8.7,2.9-13,4.5c-5.8,2.1-11.5,4.5-17.1,7.1c-6.3,2.9-12.4,6.1-18.1,10.1c-3.8,2.7-7.2,5.7-10,9.4
		c-2.9,4-1.7,9.4,2.6,11.3C172.7,163.5,177.8,164.4,183,164.7z"/>
</g>
</svg>
